<svg width="54" height="53" viewBox="0 0 54 53" fill="none" xmlns="http://www.w3.org/2000/svg">
<g filter="url(#filter0_d)">
<path d="M32.7998 26.5141V26.5142V31.4054C32.7998 31.6043 32.7208 31.7951 32.5801 31.9358C32.4395 32.0764 32.2487 32.1554 32.0498 32.1554H22.0498C21.8509 32.1554 21.6601 32.0764 21.5195 31.9358L21.1659 32.2893L21.5195 31.9358C21.3788 31.7951 21.2998 31.6043 21.2998 31.4054V26.5142V26.5141C21.2998 26.2419 21.3553 25.9725 21.4631 25.7225C21.5708 25.4725 21.7284 25.2471 21.9263 25.0601L21.9264 25.0601L26.5345 20.7051L26.5346 20.705C26.6738 20.5734 26.8582 20.5 27.0498 20.5C27.2414 20.5 27.4258 20.5734 27.5651 20.705L27.5651 20.7051L32.1732 25.0601L32.1733 25.0601C32.3712 25.2471 32.5288 25.4725 32.6366 25.7225C32.7443 25.9725 32.7998 26.2419 32.7998 26.5141Z" stroke="#F3C68E"/>
</g>
<defs>
<filter id="filter0_d" x="0.799805" y="0" width="52.5" height="52.6554" filterUnits="userSpaceOnUse" color-interpolation-filters="sRGB">
<feFlood flood-opacity="0" result="BackgroundImageFix"/>
<feColorMatrix in="SourceAlpha" type="matrix" values="0 0 0 0 0 0 0 0 0 0 0 0 0 0 0 0 0 0 127 0" result="hardAlpha"/>
<feOffset/>
<feGaussianBlur stdDeviation="10"/>
<feComposite in2="hardAlpha" operator="out"/>
<feColorMatrix type="matrix" values="0 0 0 0 1 0 0 0 0 0.847003 0 0 0 0 0.516667 0 0 0 0.6 0"/>
<feBlend mode="normal" in2="BackgroundImageFix" result="effect1_dropShadow"/>
<feBlend mode="normal" in="SourceGraphic" in2="effect1_dropShadow" result="shape"/>
</filter>
</defs>
</svg>
