<svg width="56" height="55" viewBox="0 0 56 55" fill="none" xmlns="http://www.w3.org/2000/svg">
<g filter="url(#filter0_d)">
<path d="M28.2998 20C24.1667 20 20.7998 23.3669 20.7998 27.5C20.7998 31.6331 24.1667 35 28.2998 35C32.4329 35 35.7998 31.6331 35.7998 27.5C35.7998 23.3669 32.4329 20 28.2998 20ZM28.2998 21.1538C31.8109 21.1538 34.646 23.9889 34.646 27.5C34.646 29.046 34.0961 30.4567 33.1856 31.5565C32.6898 30.1502 31.6171 29.0189 30.2469 28.46C30.8193 27.9327 31.1844 27.18 31.1844 26.3462C31.1844 24.7596 29.8863 23.4615 28.2998 23.4615C26.7133 23.4615 25.4152 24.7596 25.4152 26.3462C25.4152 27.18 25.7803 27.9327 26.3527 28.46C24.9825 29.0189 23.9143 30.1502 23.4185 31.5565C22.5035 30.4567 21.9537 29.046 21.9537 27.5C21.9537 23.9889 24.7887 21.1538 28.2998 21.1538ZM28.2998 24.6154C29.2643 24.6154 30.0306 25.3816 30.0306 26.3462C30.0306 27.3107 29.2643 28.0769 28.2998 28.0769C27.3353 28.0769 26.569 27.3107 26.569 26.3462C26.569 25.3816 27.3353 24.6154 28.2998 24.6154ZM28.2998 29.2308C30.2604 29.2308 31.8695 30.6235 32.2436 32.4715C31.1574 33.3323 29.7917 33.8462 28.2998 33.8462C26.8079 33.8462 25.4422 33.3323 24.3605 32.4715C24.7301 30.6235 26.3392 29.2308 28.2998 29.2308Z" fill="#F3C68E"/>
</g>
<defs>
<filter id="filter0_d" x="0.799805" y="0" width="55" height="55" filterUnits="userSpaceOnUse" color-interpolation-filters="sRGB">
<feFlood flood-opacity="0" result="BackgroundImageFix"/>
<feColorMatrix in="SourceAlpha" type="matrix" values="0 0 0 0 0 0 0 0 0 0 0 0 0 0 0 0 0 0 127 0" result="hardAlpha"/>
<feOffset/>
<feGaussianBlur stdDeviation="10"/>
<feComposite in2="hardAlpha" operator="out"/>
<feColorMatrix type="matrix" values="0 0 0 0 1 0 0 0 0 0.847003 0 0 0 0 0.516667 0 0 0 0.6 0"/>
<feBlend mode="normal" in2="BackgroundImageFix" result="effect1_dropShadow"/>
<feBlend mode="normal" in="SourceGraphic" in2="effect1_dropShadow" result="shape"/>
</filter>
</defs>
</svg>
