<svg width="58" height="51" viewBox="0 0 58 51" fill="none" xmlns="http://www.w3.org/2000/svg">
<g filter="url(#filter0_d)">
<path d="M28.8 20C26.9824 20 25.5 21.4824 25.5 23.3C25.5 24.357 26.0113 25.2895 26.7891 25.8953C26.3207 26.0801 25.891 26.3336 25.4957 26.6344C25.4957 26.6215 25.5 26.6129 25.5 26.6C25.5 25.3926 24.5074 24.4 23.3 24.4C22.0926 24.4 21.1 25.3926 21.1 26.6C21.1 27.1887 21.3406 27.7258 21.7187 28.1211C20.7004 28.684 20 29.7582 20 31H21.1C21.1 29.7797 22.0797 28.8 23.3 28.8C23.4547 28.8 23.6008 28.8172 23.7426 28.8473C23.459 29.509 23.3 30.2352 23.3 31H24.4C24.4 28.5637 26.3637 26.6 28.8 26.6C31.2363 26.6 33.2 28.5637 33.2 31H34.3C34.3 30.2395 34.141 29.5133 33.8574 28.8516C34.0035 28.8215 34.1496 28.8 34.3 28.8C35.5203 28.8 36.5 29.7797 36.5 31H37.6C37.6 29.7582 36.8996 28.684 35.8813 28.1211C36.2594 27.7258 36.5 27.1887 36.5 26.6C36.5 25.3926 35.5074 24.4 34.3 24.4C33.0926 24.4 32.1 25.3926 32.1 26.6C32.1 26.6129 32.1043 26.6215 32.1043 26.6344C31.709 26.3336 31.2793 26.0801 30.8109 25.8953C31.5887 25.2895 32.1 24.357 32.1 23.3C32.1 21.4824 30.6176 20 28.8 20H28.8ZM28.8 21.1C30.0203 21.1 31 22.0797 31 23.3C31 24.5203 30.0203 25.5 28.8 25.5C27.5797 25.5 26.6 24.5203 26.6 23.3C26.6 22.0797 27.5797 21.1 28.8 21.1ZM23.3 25.5C23.9145 25.5 24.4 25.9855 24.4 26.6C24.4 27.2145 23.9145 27.7 23.3 27.7C22.6855 27.7 22.2 27.2145 22.2 26.6C22.2 25.9855 22.6855 25.5 23.3 25.5ZM34.3 25.5C34.9145 25.5 35.4 25.9855 35.4 26.6C35.4 27.2145 34.9145 27.7 34.3 27.7C33.6855 27.7 33.2 27.2145 33.2 26.6C33.2 25.9855 33.6855 25.5 34.3 25.5Z" fill="#F3C68E"/>
</g>
<defs>
<filter id="filter0_d" x="0" y="0" width="57.6" height="51" filterUnits="userSpaceOnUse" color-interpolation-filters="sRGB">
<feFlood flood-opacity="0" result="BackgroundImageFix"/>
<feColorMatrix in="SourceAlpha" type="matrix" values="0 0 0 0 0 0 0 0 0 0 0 0 0 0 0 0 0 0 127 0" result="hardAlpha"/>
<feOffset/>
<feGaussianBlur stdDeviation="10"/>
<feComposite in2="hardAlpha" operator="out"/>
<feColorMatrix type="matrix" values="0 0 0 0 1 0 0 0 0 0.847003 0 0 0 0 0.516667 0 0 0 0.6 0"/>
<feBlend mode="normal" in2="BackgroundImageFix" result="effect1_dropShadow"/>
<feBlend mode="normal" in="SourceGraphic" in2="effect1_dropShadow" result="shape"/>
</filter>
</defs>
</svg>
