<svg width="53" height="56" viewBox="0 0 53 56" fill="none" xmlns="http://www.w3.org/2000/svg">
<g filter="url(#filter0_d)">
<path d="M26.5179 20C26.1342 20.0045 25.7504 20.1205 25.4203 20.357L24.3896 21.0976L23.109 21.2761H23.0822C22.2969 21.4546 21.6812 22.0703 21.5027 22.8556V22.8824L21.3242 24.1585L20.5746 25.1401L20.5612 25.1625C20.1284 25.8541 20.115 26.7331 20.5835 27.389L21.3331 28.4286L21.5562 29.727C21.6142 30.2134 21.873 30.6194 22.2344 30.9139L20.4051 32.7388C20.24 32.9039 20.1909 33.1493 20.2801 33.3635C20.3694 33.5777 20.5746 33.716 20.8066 33.716H22.52V35.4294C22.52 35.6614 22.6583 35.8666 22.8725 35.9559C23.0867 36.0451 23.3321 35.996 23.4927 35.8354L26.5179 32.8102L29.5386 35.8354C29.7037 35.996 29.9491 36.0451 30.1633 35.9559C30.3775 35.8666 30.5158 35.6614 30.5158 35.4294V33.716H32.2292C32.4612 33.716 32.6664 33.5777 32.7557 33.3635C32.8449 33.1493 32.7958 32.9039 32.6352 32.7388L30.7924 30.9005C31.1895 30.6105 31.4796 30.1821 31.5376 29.6645L31.7116 28.4197L32.4657 27.3711L32.4746 27.3577C32.9074 26.6661 32.9208 25.7871 32.4567 25.1312L31.7027 24.0871L31.4796 22.8556C31.3859 22.0257 30.721 21.3654 29.8911 21.2672L28.6462 21.0976L27.6155 20.357C27.2854 20.1205 26.9016 20 26.5179 20L26.5179 20ZM26.5179 21.1556C26.6741 21.1556 26.8347 21.2003 26.9507 21.285L28.209 22.1953L29.7573 22.4005L29.7662 22.405C30.0785 22.4407 30.3061 22.6682 30.3418 22.9806V22.9984L30.6229 24.5512L31.5287 25.8005C31.6937 26.0325 31.7071 26.4207 31.5063 26.7464L30.6184 27.9824L30.4087 29.5307L30.4042 29.5396C30.3686 29.8519 30.141 30.0795 29.8242 30.1152L29.8108 30.1197L28.2 30.3963L26.9507 31.3021C26.7142 31.4672 26.326 31.4806 26.0003 31.2798L24.8358 30.3918L23.2785 30.1821L23.2696 30.1777C22.9573 30.142 22.7297 29.9144 22.694 29.6021L22.6896 29.5842L22.4129 27.969L21.5116 26.7241V26.7197C21.3421 26.4877 21.3287 26.0995 21.5295 25.7737L22.4174 24.6092L22.6226 23.1055C22.7029 22.7486 22.9751 22.4764 23.3321 22.3961L24.8268 22.1953L26.0896 21.285C26.2056 21.2003 26.3617 21.1556 26.5179 21.1556L26.5179 21.1556ZM29.5877 31.311L30.8504 32.5737H29.9447C29.6279 32.5737 29.3735 32.8281 29.3735 33.1449V34.0506L27.5709 32.248C27.5843 32.2391 27.6022 32.2391 27.6155 32.2302L28.6552 31.4761L29.5877 31.311ZM23.4124 31.3467L24.3851 31.485L25.3667 32.2346L25.389 32.248C25.4069 32.2569 25.4247 32.2614 25.4381 32.2703L23.6623 34.0506V33.1449C23.6623 32.8281 23.4079 32.5737 23.0911 32.5737H22.1854L23.4124 31.3467Z" fill="#F3C68E"/>
</g>
<defs>
<filter id="filter0_d" x="0.234375" y="0" width="52.5676" height="56" filterUnits="userSpaceOnUse" color-interpolation-filters="sRGB">
<feFlood flood-opacity="0" result="BackgroundImageFix"/>
<feColorMatrix in="SourceAlpha" type="matrix" values="0 0 0 0 0 0 0 0 0 0 0 0 0 0 0 0 0 0 127 0" result="hardAlpha"/>
<feOffset/>
<feGaussianBlur stdDeviation="10"/>
<feComposite in2="hardAlpha" operator="out"/>
<feColorMatrix type="matrix" values="0 0 0 0 1 0 0 0 0 0.847003 0 0 0 0 0.516667 0 0 0 0.6 0"/>
<feBlend mode="normal" in2="BackgroundImageFix" result="effect1_dropShadow"/>
<feBlend mode="normal" in="SourceGraphic" in2="effect1_dropShadow" result="shape"/>
</filter>
</defs>
</svg>
